<?xml version="1.0" encoding="UTF-8"?>
<svg xmlns="http://www.w3.org/2000/svg" xmlns:xlink="http://www.w3.org/1999/xlink" width="399pt" height="270pt" viewBox="0 0 399 270" version="1.1">
<g id="surface1">
<path style=" stroke:none;fill-rule:nonzero;fill:rgb(94.901961%,94.901961%,94.901961%);fill-opacity:1;" d="M 395.011719 0 L 125.097656 0 C 122.957031 0.00390625 121.222656 1.742188 121.21875 3.886719 L 121.21875 101.695312 L 186.542969 101.695312 C 190.222656 101.695312 193.207031 104.6875 193.210938 108.378906 L 193.210938 191.125 L 395.011719 191.125 C 396.144531 191.125 397.222656 190.628906 397.960938 189.761719 C 397.992188 189.730469 398.019531 189.691406 398.042969 189.65625 C 398.277344 189.371094 398.464844 189.054688 398.597656 188.714844 C 398.792969 188.246094 398.894531 187.746094 398.894531 187.238281 L 398.894531 3.886719 C 398.890625 1.742188 397.152344 0 395.011719 0 Z M 395.011719 0 "/>
<path style=" stroke:none;fill-rule:nonzero;fill:rgb(80%,80%,80%);fill-opacity:1;" d="M 121.773438 15.582031 L 398.335938 15.582031 L 398.335938 16.691406 L 121.773438 16.691406 Z M 121.773438 15.582031 "/>
<path style=" stroke:none;fill-rule:nonzero;fill:rgb(80%,80%,80%);fill-opacity:1;" d="M 134.519531 8.335938 C 134.519531 10.175781 133.03125 11.667969 131.191406 11.667969 C 129.355469 11.667969 127.867188 10.175781 127.867188 8.335938 C 127.867188 6.492188 129.355469 5.003906 131.191406 5.003906 C 133.03125 5.003906 134.519531 6.492188 134.519531 8.335938 Z M 134.519531 8.335938 "/>
<path style=" stroke:none;fill-rule:nonzero;fill:rgb(80%,80%,80%);fill-opacity:1;" d="M 144.078125 8.335938 C 144.078125 10.175781 142.589844 11.667969 140.753906 11.667969 C 138.917969 11.667969 137.429688 10.175781 137.429688 8.335938 C 137.429688 6.492188 138.917969 5.003906 140.753906 5.003906 C 142.589844 5.003906 144.078125 6.492188 144.078125 8.335938 Z M 144.078125 8.335938 "/>
<path style=" stroke:none;fill-rule:nonzero;fill:rgb(80%,80%,80%);fill-opacity:1;" d="M 153.640625 8.335938 C 153.640625 10.175781 152.152344 11.667969 150.316406 11.667969 C 148.480469 11.667969 146.988281 10.175781 146.988281 8.335938 C 146.988281 6.492188 148.480469 5.003906 150.316406 5.003906 C 152.152344 5.003906 153.640625 6.492188 153.640625 8.335938 Z M 153.640625 8.335938 "/>
<path style=" stroke:none;fill-rule:nonzero;fill:rgb(80%,80%,80%);fill-opacity:1;" d="M 329.421875 39.84375 L 190.6875 39.84375 C 187.496094 39.84375 184.90625 42.4375 184.90625 45.636719 C 184.90625 48.835938 187.496094 51.433594 190.6875 51.433594 L 329.421875 51.433594 C 332.617188 51.433594 335.203125 48.835938 335.203125 45.636719 C 335.203125 42.4375 332.617188 39.84375 329.421875 39.84375 Z M 329.421875 50.539062 L 190.6875 50.539062 C 187.984375 50.539062 185.796875 48.34375 185.796875 45.636719 C 185.796875 42.929688 187.984375 40.734375 190.6875 40.734375 L 329.421875 40.734375 C 332.125 40.734375 334.316406 42.929688 334.316406 45.636719 C 334.316406 48.34375 332.125 50.539062 329.421875 50.539062 Z M 329.421875 50.539062 "/>
<path style=" stroke:none;fill-rule:nonzero;fill:rgb(100%,100%,100%);fill-opacity:1;" d="M 371.875 86.011719 L 233.140625 86.011719 C 229.945312 86.011719 227.359375 88.605469 227.359375 91.804688 C 227.359375 95.003906 229.945312 97.601562 233.140625 97.601562 L 371.875 97.601562 C 375.066406 97.601562 377.65625 95.003906 377.65625 91.804688 C 377.65625 88.605469 375.066406 86.011719 371.875 86.011719 Z M 371.875 86.011719 "/>
<path style=" stroke:none;fill-rule:nonzero;fill:rgb(100%,100%,100%);fill-opacity:1;" d="M 371.875 107.40625 L 233.140625 107.40625 C 229.945312 107.40625 227.359375 110.003906 227.359375 113.203125 C 227.359375 116.402344 229.945312 118.996094 233.140625 118.996094 L 371.875 118.996094 C 375.066406 118.996094 377.65625 116.402344 377.65625 113.203125 C 377.65625 110.003906 375.066406 107.40625 371.875 107.40625 Z M 371.875 107.40625 "/>
<path style=" stroke:none;fill-rule:nonzero;fill:rgb(100%,100%,100%);fill-opacity:1;" d="M 371.875 128.804688 L 233.140625 128.804688 C 229.945312 128.804688 227.359375 131.398438 227.359375 134.597656 C 227.359375 137.800781 229.945312 140.394531 233.140625 140.394531 L 371.875 140.394531 C 375.066406 140.394531 377.65625 137.800781 377.65625 134.597656 C 377.65625 131.398438 375.066406 128.804688 371.875 128.804688 Z M 371.875 128.804688 "/>
<path style=" stroke:none;fill-rule:nonzero;fill:rgb(80%,80%,80%);fill-opacity:1;" d="M 210.71875 76.425781 L 147.566406 76.425781 C 144.746094 76.429688 142.460938 78.722656 142.457031 81.546875 L 142.457031 101.695312 L 143.347656 101.695312 L 143.347656 81.546875 C 143.351562 79.214844 145.238281 77.320312 147.566406 77.316406 L 210.71875 77.316406 C 213.046875 77.320312 214.9375 79.214844 214.9375 81.546875 L 214.9375 144.855469 C 214.9375 147.191406 213.046875 149.085938 210.71875 149.085938 L 193.210938 149.085938 L 193.210938 149.976562 L 210.71875 149.976562 C 213.539062 149.976562 215.824219 147.683594 215.828125 144.855469 L 215.828125 81.546875 C 215.824219 78.722656 213.539062 76.429688 210.71875 76.425781 Z M 210.71875 76.425781 "/>
<path style=" stroke:none;fill-rule:nonzero;fill:rgb(100%,72.156863%,72.156863%);fill-opacity:1;" d="M 46.96875 141.558594 C 46.746094 141.570312 37.226562 140.90625 36.984375 140.898438 L 37.835938 132.339844 L 43.257812 132.175781 L 53.621094 112.941406 C 52.183594 110.195312 53.949219 106.550781 57 105.988281 C 63.140625 104.589844 65.25 114.273438 59.089844 115.566406 L 50.523438 139.070312 C 49.96875 140.5625 48.550781 141.554688 46.96875 141.558594 Z M 46.96875 141.558594 "/>
<path style=" stroke:none;fill-rule:nonzero;fill:rgb(42.352941%,38.823529%,100%);fill-opacity:1;" d="M 21.871094 145.96875 C 12.8125 145.992188 12.015625 132.265625 21.09375 131.300781 C 45.101562 129.84375 42.066406 123.800781 43.890625 141.628906 C 44.003906 142.730469 43.210938 143.71875 42.113281 143.839844 L 22.65625 145.925781 C 22.394531 145.953125 22.132812 145.96875 21.871094 145.96875 Z M 21.871094 145.96875 "/>
<path style=" stroke:none;fill-rule:nonzero;fill:rgb(100%,72.156863%,72.156863%);fill-opacity:1;" d="M 19.800781 102.578125 C 32.28125 109.695312 22.035156 128.476562 9.324219 121.789062 C -3.152344 114.671875 7.089844 95.886719 19.800781 102.578125 Z M 19.800781 102.578125 "/>
<path style=" stroke:none;fill-rule:nonzero;fill:rgb(100%,72.156863%,72.156863%);fill-opacity:1;" d="M 31.148438 264.261719 L 36.601562 264.257812 L 39.195312 243.179688 L 31.148438 243.179688 Z M 31.148438 264.261719 "/>
<path style=" stroke:none;fill-rule:nonzero;fill:rgb(18.431373%,18.039216%,25.490196%);fill-opacity:1;" d="M 29.980469 269.332031 L 47.113281 269.332031 C 47.050781 260.472656 35.589844 263.027344 29.980469 262.699219 Z M 29.980469 269.332031 "/>
<path style=" stroke:none;fill-rule:nonzero;fill:rgb(100%,72.156863%,72.156863%);fill-opacity:1;" d="M 7.582031 264.261719 L 13.03125 264.257812 L 15.625 243.179688 L 7.578125 243.179688 Z M 7.582031 264.261719 "/>
<path style=" stroke:none;fill-rule:nonzero;fill:rgb(18.431373%,18.039216%,25.490196%);fill-opacity:1;" d="M 6.410156 269.332031 L 23.546875 269.332031 C 23.480469 260.472656 12.023438 263.027344 6.410156 262.699219 Z M 6.410156 269.332031 "/>
<path style=" stroke:none;fill-rule:nonzero;fill:rgb(18.431373%,18.039216%,25.490196%);fill-opacity:1;" d="M 13.777344 256.898438 C 12.460938 256.535156 5.296875 257.632812 4.457031 256.191406 C 1.503906 226.542969 2.160156 197.53125 8.710938 181.585938 L 31.230469 180.203125 C 36.265625 189.417969 47.84375 250.578125 40.859375 254.292969 L 31.882812 254.617188 C 30.824219 254.652344 29.890625 253.941406 29.640625 252.910156 L 22.128906 210.066406 C 20.257812 207.445312 16.578125 255.1875 15.972656 255.007812 C 15.808594 256.097656 14.875 256.898438 13.777344 256.898438 Z M 13.777344 256.898438 "/>
<path style=" stroke:none;fill-rule:nonzero;fill:rgb(42.352941%,38.823529%,100%);fill-opacity:1;" d="M 7.996094 185.332031 C -3.375 173.40625 3.875 141.433594 3.507812 142.113281 C 3.539062 141.332031 6.117188 129.269531 12.78125 127.289062 C 18.066406 125.542969 23.914062 130.769531 24.636719 136.0625 L 32.554688 182.9375 C 32.636719 183.453125 32.46875 183.980469 32.101562 184.355469 C 32.492188 185.566406 8.550781 185.089844 7.996094 185.332031 Z M 7.996094 185.332031 "/>
<path style=" stroke:none;fill-rule:nonzero;fill:rgb(18.431373%,18.039216%,25.490196%);fill-opacity:1;" d="M 11.683594 110.964844 C 12.683594 110.332031 13.175781 109.246094 13.757812 108.257812 C 16.820312 106.507812 20.339844 110.742188 23.578125 109.160156 C 32.734375 100.347656 23.320312 97.75 14.890625 97.285156 C 12.894531 97.039062 11.199219 97.746094 9.695312 98.917969 C -7.152344 97.625 0.925781 120.082031 11.558594 123.050781 C 13.4375 123.875 14.84375 122.207031 13.191406 120.691406 C 10.898438 118.28125 8.0625 113.4375 11.683594 110.964844 Z M 11.683594 110.964844 "/>
<path style=" stroke:none;fill-rule:nonzero;fill:rgb(24.705882%,23.921569%,33.72549%);fill-opacity:1;" d="M 186.542969 100.800781 L 64.703125 100.800781 C 60.53125 100.808594 57.148438 104.199219 57.144531 108.378906 L 57.144531 262.613281 C 57.148438 266.796875 60.53125 270.183594 64.703125 270.191406 L 186.542969 270.191406 C 190.714844 270.183594 194.097656 266.796875 194.101562 262.613281 L 194.101562 108.378906 C 194.097656 104.199219 190.714844 100.808594 186.542969 100.800781 Z M 193.210938 262.613281 C 193.207031 266.304688 190.222656 269.292969 186.542969 269.300781 L 64.703125 269.300781 C 61.023438 269.292969 58.039062 266.304688 58.035156 262.613281 L 58.035156 108.378906 C 58.039062 104.6875 61.023438 101.695312 64.703125 101.695312 L 186.542969 101.695312 C 190.222656 101.695312 193.207031 104.6875 193.210938 108.378906 Z M 193.210938 262.613281 "/>
<path style=" stroke:none;fill-rule:nonzero;fill:rgb(100%,72.156863%,72.156863%);fill-opacity:1;" d="M 30.375 165.703125 C 26.355469 166.160156 24.597656 156.789062 23.058594 154.40625 L 31.058594 151.289062 L 33.660156 156.0625 L 55.460938 156.605469 C 55.589844 156.429688 55.730469 156.261719 55.886719 156.105469 C 60.207031 151.570312 67.25 158.367188 62.941406 162.894531 C 61.980469 163.917969 60.628906 164.480469 59.226562 164.441406 C 57.824219 164.402344 56.507812 163.761719 55.605469 162.683594 C 55.070312 162.722656 30.902344 165.71875 30.375 165.703125 Z M 30.375 165.703125 "/>
<path style=" stroke:none;fill-rule:nonzero;fill:rgb(42.352941%,38.823529%,100%);fill-opacity:1;" d="M 24.449219 161.230469 C 23.113281 162.523438 12.847656 144.394531 12.101562 143.882812 C 6.914062 135.800781 19.125 127.820312 24.398438 135.859375 L 35.070312 152.296875 C 35.671875 153.226562 35.410156 154.46875 34.484375 155.070312 C 34 155.300781 24.792969 161.722656 24.449219 161.230469 Z M 24.449219 161.230469 "/>
<path style=" stroke:none;fill-rule:nonzero;fill:rgb(80%,80%,80%);fill-opacity:1;" d="M 162.53125 207.5625 L 88.714844 207.5625 C 81.175781 207.523438 81.144531 196.011719 88.714844 195.972656 L 162.53125 195.972656 C 170.0625 196.003906 170.105469 207.523438 162.53125 207.5625 Z M 162.53125 207.5625 "/>
<path style=" stroke:none;fill-rule:nonzero;fill:rgb(80%,80%,80%);fill-opacity:1;" d="M 162.53125 228.957031 L 88.714844 228.957031 C 81.175781 228.921875 81.144531 217.40625 88.714844 217.367188 L 162.53125 217.367188 C 170.0625 217.402344 170.105469 228.917969 162.53125 228.957031 Z M 162.53125 228.957031 "/>
<path style=" stroke:none;fill-rule:nonzero;fill:rgb(80%,80%,80%);fill-opacity:1;" d="M 162.53125 250.355469 L 88.714844 250.355469 C 81.175781 250.320312 81.144531 238.804688 88.714844 238.765625 L 162.53125 238.765625 C 170.0625 238.800781 170.105469 250.316406 162.53125 250.355469 Z M 162.53125 250.355469 "/>
<path style=" stroke:none;fill-rule:nonzero;fill:rgb(42.352941%,38.823529%,100%);fill-opacity:1;" d="M 190.101562 115.066406 C 183.714844 115.066406 178.539062 109.878906 178.539062 103.476562 C 178.539062 97.074219 183.714844 91.886719 190.101562 91.886719 C 196.484375 91.886719 201.660156 97.074219 201.660156 103.476562 C 201.65625 109.875 196.480469 115.058594 190.101562 115.066406 Z M 190.101562 115.066406 "/>
<path style=" stroke:none;fill-rule:nonzero;fill:rgb(100%,100%,100%);fill-opacity:1;" d="M 195.433594 103.03125 L 190.546875 103.03125 L 190.546875 97.457031 C 190.546875 97.210938 190.34375 97.011719 190.101562 97.011719 C 189.851562 97.011719 189.65625 97.210938 189.65625 97.457031 L 189.65625 103.03125 L 184.761719 103.03125 C 184.519531 103.03125 184.316406 103.226562 184.316406 103.476562 C 184.316406 103.71875 184.519531 103.921875 184.761719 103.921875 L 189.65625 103.921875 L 189.65625 109.496094 C 189.65625 109.738281 189.851562 109.941406 190.101562 109.941406 C 190.34375 109.941406 190.546875 109.738281 190.546875 109.496094 L 190.546875 103.921875 L 195.433594 103.921875 C 195.679688 103.921875 195.878906 103.71875 195.878906 103.476562 C 195.878906 103.226562 195.679688 103.03125 195.433594 103.03125 Z M 195.433594 103.03125 "/>
<path style=" stroke:none;fill-rule:nonzero;fill:rgb(42.352941%,38.823529%,100%);fill-opacity:1;" d="M 161.195312 182.0625 L 90.046875 182.0625 C 86 182.058594 82.714844 178.769531 82.714844 174.707031 L 82.714844 134.765625 C 82.714844 130.707031 86 127.417969 90.046875 127.410156 L 161.195312 127.410156 C 165.246094 127.417969 168.53125 130.707031 168.53125 134.765625 L 168.53125 174.707031 C 168.53125 178.769531 165.246094 182.058594 161.195312 182.0625 Z M 161.195312 182.0625 "/>
</g>
</svg>
